<?xml version="1.0" encoding="UTF-8"?>
<svg id="Layer_2" data-name="Layer 2" xmlns="http://www.w3.org/2000/svg" viewBox="0 0 376.07 379.68">
  <defs>
    <style>
      .cls-1 {
        fill: #f1572a;
        stroke: #f1572a;
        stroke-miterlimit: 10;
        stroke-width: 5px;
      }
    </style>
  </defs>
  <g id="Layer_1-2" data-name="Layer 1">
    <path class="cls-1" d="M373.47,256.54c-.57,0-1.13,0-1.7,0,0-29.68,1.87-59.51-.34-89.02C364.12,70.11,272.13-6.13,174.97,3.29,58.92,14.53-14.89,112.28,6.04,227.03c15.08,82.66,71.54,140.6,152.31,147.21,60.65,4.96,121.98,2.33,182.99,1.55,20.61-.26,31.74-14.13,32.03-34.93,.39-28.1,.1-56.21,.1-84.32Zm-185.41,57.86c-68.96-.11-120.88-54.93-119.8-126.48,1.08-70.78,52.86-124.69,119.8-124.73,67.94-.04,120.18,55.55,119.52,127.18-.66,71.48-51.4,124.14-119.52,124.03Z"/>
  </g>
</svg>